<mxfile host="65bd71144e">
    <diagram id="zRFz4WdjBZz7PcNGRG8a" name="Page-1">
        <mxGraphModel dx="256" dy="521" grid="1" gridSize="10" guides="1" tooltips="1" connect="1" arrows="1" fold="1" page="1" pageScale="1" pageWidth="850" pageHeight="1100" math="0" shadow="0">
            <root>
                <mxCell id="0"/>
                <mxCell id="1" parent="0"/>
                <mxCell id="8" style="edgeStyle=none;html=1;" edge="1" parent="1" source="2" target="4">
                    <mxGeometry relative="1" as="geometry"/>
                </mxCell>
                <mxCell id="2" value="HONO" style="ellipse;whiteSpace=wrap;html=1;fillColor=#60a917;fontColor=#ffffff;strokeColor=#2D7600;" vertex="1" parent="1">
                    <mxGeometry x="120" width="120" height="80" as="geometry"/>
                </mxCell>
                <mxCell id="3" value="POSTGIS" style="shape=datastore;whiteSpace=wrap;html=1;fillColor=#0050ef;fontColor=#ffffff;strokeColor=#001DBC;" vertex="1" parent="1">
                    <mxGeometry y="110" width="60" height="60" as="geometry"/>
                </mxCell>
                <mxCell id="7" style="edgeStyle=none;html=1;entryX=1;entryY=0.7;entryDx=0;entryDy=0;" edge="1" parent="1" source="4" target="3">
                    <mxGeometry relative="1" as="geometry"/>
                </mxCell>
                <mxCell id="4" value="DRIZZLE ORM" style="triangle;whiteSpace=wrap;html=1;direction=west;fillColor=#0050ef;fontColor=#ffffff;strokeColor=#001DBC;" vertex="1" parent="1">
                    <mxGeometry x="160" y="110" width="100" height="80" as="geometry"/>
                </mxCell>
                <mxCell id="5" value="LUCIA:&lt;br&gt;to learn implementing session based auth&lt;br&gt;(deprectaed libary)" style="rounded=0;whiteSpace=wrap;html=1;fillColor=#a20025;fontColor=#ffffff;strokeColor=#6F0000;" vertex="1" parent="1">
                    <mxGeometry x="60" y="210" width="120" height="110" as="geometry"/>
                </mxCell>
            </root>
        </mxGraphModel>
    </diagram>
</mxfile>